<svg id="Calque_2" data-name="Calque 2" xmlns="http://www.w3.org/2000/svg" viewBox="0 0 1080 1080"><defs><style>.cls-1{fill:#fff;}</style></defs><path class="cls-1" d="M743,1024H336.5a281,281,0,0,1-281-281V336.5a281,281,0,0,1,281-281H743a281,281,0,0,1,281,281V743a281,281,0,0,1-281,281ZM336.5,150.5c-102.56,0-186,83.44-186,186V743c0,102.56,83.44,186,186,186H743c102.56,0,186-83.44,186-186V336.5c0-102.56-83.44-186-186-186Z"/><path class="cls-1" d="M543.5,791a251.49,251.49,0,1,1,177.84-73.66A249.88,249.88,0,0,1,543.5,791Zm0-408C457.21,383,387,453.21,387,539.5S457.21,696,543.5,696,700,625.79,700,539.5,629.79,383,543.5,383Z"/><circle class="cls-1" cx="796.5" cy="282.5" r="59"/></svg>