<svg id="Calque_2" data-name="Calque 2" xmlns="http://www.w3.org/2000/svg" viewBox="0 0 1080 1080"><defs><style>.cls-1{fill:#fff;}</style></defs><path class="cls-1" d="M538.5,7C245,7,7,245,7,538.5S245,1070,538.5,1070,1070,832,1070,538.5,832,7,538.5,7Zm272,466.62a183.76,183.76,0,0,1-82.58-13.11C682,441.68,656.49,409.16,646.64,395V682h-.44c-6.76,106.1-94.93,190.06-202.73,190.06-112.2,0-203.16-91-203.16-203.16s91-203.17,203.16-203.17c4.85,0,9.66.19,14.42.52V566.39A103.54,103.54,0,1,0,547,668.92V206.23h99.62c1.15,11.57,9.69,84.66,73.4,128.45,36.11,24.83,73,28.58,90.44,29.17Z"/></svg>