<svg id="Calque_2" data-name="Calque 2" xmlns="http://www.w3.org/2000/svg" viewBox="0 0 1080 1080"><defs><style>.cls-1{fill:#fff;}</style></defs><path class="cls-1" d="M1036.54,532.12c-2.1-49.51-8-97.36-8.86-103.8-4.11-32.49-9.19-62.81-14.75-90.75-1.29-17.39-6.39-50.17-31-74.73-25.52-25.52-59.28-29.49-74.73-30.95-106-10-221.92-16.49-346.35-16.87-133.52-.42-257.36,6.23-370,16.87a105.31,105.31,0,0,0-74.73,30.95c-24.28,24.27-29.6,56.65-31,74.73-9.78,80-16.09,152.14-20.24,214.79,0,0-9.45,142.78,25,242.84,3.6,10.45,10.49,27.59,26.21,43.3,30.25,30.26,67.69,31,74.73,31A3174.82,3174.82,0,0,0,564.27,889.7a3175.18,3175.18,0,0,0,343-20.24c37.61-4.27,56.19-15.38,74.73-31C1047.21,783.69,1042.46,671.69,1036.54,532.12ZM452.94,695.59V393.81L699.38,552.37Z"/></svg>