<svg id="Calque_2" data-name="Calque 2" xmlns="http://www.w3.org/2000/svg" viewBox="0 0 1080 1080"><defs><style>.cls-1{fill:#fff;}</style></defs><path class="cls-1" d="M532.44,584.42H450A22.47,22.47,0,0,1,427.58,562V300.67A22.47,22.47,0,0,1,450,278.22h82.41a22.48,22.48,0,0,1,22.46,22.45V562A22.48,22.48,0,0,1,532.44,584.42Zm-62.77-42.09h43.14v-222H469.67Z"/><path class="cls-1" d="M732.92,583.65H650.51a22.49,22.49,0,0,1-22.46-22.46V299.9a22.49,22.49,0,0,1,22.46-22.46h82.41a22.49,22.49,0,0,1,22.46,22.46V561.19A22.49,22.49,0,0,1,732.92,583.65Zm-62.78-42.09h43.15v-222H670.14Z"/><path class="cls-1" d="M1059,676.59,1053.81,13,101.6,15.18l-78.09,131V898.21a26.08,26.08,0,0,0,26,26.09H238.82l.74,145.21H461.85L615.54,924.3H795.27ZM660.08,882.21H581l-140.77,133H293.57l-.67-133H65.6V157.74L125.54,57.22l886.51-2,4.72,603.32L778.6,882.21Z"/><path class="cls-1" d="M910.22,116.17H216.41a24.59,24.59,0,0,0-24.54,24.58V744a24.58,24.58,0,0,0,24.54,24.58h189V912.22L568.31,764.81l-4,3.75H788.77l146-141.82v-486A24.59,24.59,0,0,0,910.22,116.17ZM892.67,609l-121,117.52H527.78l-65.36,59.15V726.47H234V158.26H892.67Z"/></svg>