<svg id="Calque_2" data-name="Calque 2" xmlns="http://www.w3.org/2000/svg" viewBox="0 0 1080 1080"><defs><style>.cls-1{fill:#fff;}</style></defs><path class="cls-1" d="M1011.55,496.26A919.38,919.38,0,0,0,890.06,235.72a1071,1071,0,0,0-106.65-40.5c-36-11.51-70-20.27-101.24-27l-26.73,58a847.46,847.46,0,0,0-233.81,0q-12.86-29-25.72-58A1018.53,1018.53,0,0,0,185.4,235.72,909.86,909.86,0,0,0,36.91,824.29,931.44,931.44,0,0,0,291.48,957.93,227.69,227.69,0,0,0,346,867.48L261,825.64l21.6-17.55a566.08,566.08,0,0,0,513,0l18.9,16.2c-10.9,7.15-23.05,14.46-36.45,21.6a464.22,464.22,0,0,1-45.22,21,313,313,0,0,0,53.32,91A859.41,859.41,0,0,0,1044,824.29,920.55,920.55,0,0,0,1011.55,496.26ZM369.66,708.19c-49.58,0-89.77-46.53-89.77-103.94s40.19-103.94,89.77-103.94,89.77,46.53,89.77,103.94S419.24,708.19,369.66,708.19Zm336.13,0c-49.58,0-89.77-46.53-89.77-103.94s40.19-103.94,89.77-103.94,89.77,46.53,89.77,103.94S755.37,708.19,705.79,708.19Z"/></svg>